<?xml version="1.0" standalone="no"?>
<!DOCTYPE svg PUBLIC "-//W3C//DTD SVG 20010904//EN"
 "http://www.w3.org/TR/2001/REC-SVG-20010904/DTD/svg10.dtd">
<svg version="1.0" xmlns="http://www.w3.org/2000/svg"
 width="512.000000pt" height="512.000000pt" viewBox="0 0 512.000000 512.000000"
 preserveAspectRatio="xMidYMid meet">

<g transform="translate(0.000000,512.000000) scale(0.100000,-0.100000)"
fill="#000000" stroke="none">
<path d="M2040 4028 c-37 -19 -138 -134 -592 -678 -301 -360 -556 -673 -567
-695 -28 -57 -32 -87 -21 -143 10 -45 60 -108 573 -723 626 -751 599 -723 714
-717 77 5 136 42 172 108 30 54 33 138 7 189 -10 19 -193 244 -407 502 -214
257 -389 470 -389 473 0 3 585 7 1299 8 l1299 3 44 30 c123 87 123 263 0 350
l-44 30 -1299 3 c-714 1 -1299 5 -1299 8 0 3 175 216 389 473 214 258 397 483
407 502 26 51 23 135 -7 189 -54 99 -181 139 -279 88z"/>
</g>
</svg>
