<?xml version="1.0" standalone="no"?>
<!DOCTYPE svg PUBLIC "-//W3C//DTD SVG 20010904//EN"
 "http://www.w3.org/TR/2001/REC-SVG-20010904/DTD/svg10.dtd">
<svg version="1.0" xmlns="http://www.w3.org/2000/svg"
 width="512.000000pt" height="512.000000pt" viewBox="0 0 512.000000 512.000000"
 preserveAspectRatio="xMidYMid meet">

<g transform="translate(0.000000,512.000000) scale(0.100000,-0.100000)"
fill="#000000" stroke="none">
<path d="M2600 4227 c-19 -6 -58 -34 -85 -62 -71 -70 -90 -144 -63 -239 10
-35 88 -118 552 -583 l541 -543 -1289 0 c-983 0 -1298 -3 -1330 -12 -86 -26
-166 -136 -166 -228 0 -92 80 -202 166 -228 32 -9 347 -12 1330 -12 l1289 0
-541 -542 c-464 -466 -542 -549 -552 -584 -27 -95 -8 -169 63 -239 72 -73 151
-92 246 -60 39 13 149 120 810 783 817 818 789 787 789 882 0 95 28 64 -789
882 -661 663 -771 770 -810 783 -51 17 -110 18 -161 2z"/>
</g>
</svg>
